<mxfile host="65bd71144e">
    <diagram id="TkOUCxGeKZ2T9B5H1i8Y" name="Page-1">
        <mxGraphModel dx="1086" dy="703" grid="1" gridSize="10" guides="1" tooltips="1" connect="1" arrows="1" fold="1" page="1" pageScale="1" pageWidth="850" pageHeight="1100" math="0" shadow="0">
            <root>
                <mxCell id="0"/>
                <mxCell id="1" parent="0"/>
                <mxCell id="13" value="&lt;div style=&quot;font-size: 12px;&quot;&gt;TEJ3M - Unit 4 - 03&lt;/div&gt;&lt;div style=&quot;font-size: 12px;&quot;&gt;Youngwook Go&lt;/div&gt;&lt;div style=&quot;font-size: 12px;&quot;&gt;2023. Nov. 15&lt;/div&gt;&lt;div style=&quot;&quot;&gt;Single LED with resistor and switch&lt;br&gt;&lt;/div&gt;" style="text;html=1;strokeColor=none;fillColor=none;align=center;verticalAlign=middle;whiteSpace=wrap;rounded=0;strokeWidth=2;fontSize=12;" parent="1" vertex="1">
                    <mxGeometry x="40" y="40" width="120" height="80" as="geometry"/>
                </mxCell>
                <mxCell id="58" value="A" style="rounded=0;whiteSpace=wrap;html=1;strokeWidth=2;glass=0;" parent="1" vertex="1">
                    <mxGeometry x="55" y="130" width="30" height="30" as="geometry"/>
                </mxCell>
                <mxCell id="59" value="Output" style="rounded=0;whiteSpace=wrap;html=1;strokeWidth=2;glass=0;" parent="1" vertex="1">
                    <mxGeometry x="85" y="130" width="60" height="30" as="geometry"/>
                </mxCell>
                <mxCell id="60" value="0" style="rounded=0;whiteSpace=wrap;html=1;strokeWidth=2;glass=0;" parent="1" vertex="1">
                    <mxGeometry x="55" y="160" width="30" height="30" as="geometry"/>
                </mxCell>
                <mxCell id="61" value="1" style="rounded=0;whiteSpace=wrap;html=1;strokeWidth=2;glass=0;" parent="1" vertex="1">
                    <mxGeometry x="55" y="190" width="30" height="30" as="geometry"/>
                </mxCell>
                <mxCell id="62" value="0" style="rounded=0;whiteSpace=wrap;html=1;strokeWidth=2;glass=0;" parent="1" vertex="1">
                    <mxGeometry x="85" y="160" width="60" height="30" as="geometry"/>
                </mxCell>
                <mxCell id="63" value="1" style="rounded=0;whiteSpace=wrap;html=1;strokeWidth=2;glass=0;" parent="1" vertex="1">
                    <mxGeometry x="85" y="190" width="60" height="30" as="geometry"/>
                </mxCell>
                <mxCell id="107" style="edgeStyle=none;rounded=0;html=1;entryX=1;entryY=0.88;entryDx=0;entryDy=0;strokeWidth=2;endArrow=none;endFill=0;" edge="1" parent="1" source="70" target="106">
                    <mxGeometry relative="1" as="geometry">
                        <Array as="points">
                            <mxPoint x="220" y="80"/>
                        </Array>
                    </mxGeometry>
                </mxCell>
                <mxCell id="113" style="edgeStyle=none;rounded=0;html=1;entryX=0;entryY=0.5;entryDx=0;entryDy=0;entryPerimeter=0;strokeWidth=2;endArrow=none;endFill=0;" edge="1" parent="1" source="70" target="89">
                    <mxGeometry relative="1" as="geometry">
                        <Array as="points">
                            <mxPoint x="220" y="255"/>
                        </Array>
                    </mxGeometry>
                </mxCell>
                <mxCell id="70" value="" style="pointerEvents=1;verticalLabelPosition=bottom;shadow=0;dashed=0;align=center;html=1;verticalAlign=top;shape=mxgraph.electrical.miscellaneous.batteryStack;rotation=-90;strokeWidth=2;" vertex="1" parent="1">
                    <mxGeometry x="170" y="140" width="100" height="60" as="geometry"/>
                </mxCell>
                <mxCell id="87" value="" style="verticalLabelPosition=bottom;shadow=0;dashed=0;align=center;html=1;verticalAlign=top;shape=mxgraph.electrical.opto_electronics.led_2;pointerEvents=1;flipH=1;strokeWidth=2;" vertex="1" parent="1">
                    <mxGeometry x="380" y="215" width="100" height="70" as="geometry"/>
                </mxCell>
                <mxCell id="89" value="" style="pointerEvents=1;verticalLabelPosition=bottom;shadow=0;dashed=0;align=center;html=1;verticalAlign=top;shape=mxgraph.electrical.resistors.resistor_2;strokeWidth=2;" vertex="1" parent="1">
                    <mxGeometry x="260" y="245" width="120" height="20" as="geometry"/>
                </mxCell>
                <mxCell id="92" value="Input #1" style="text;html=1;strokeColor=none;fillColor=none;align=center;verticalAlign=middle;whiteSpace=wrap;rounded=0;strokeWidth=2;fontSize=14;" vertex="1" parent="1">
                    <mxGeometry x="272.5" y="55" width="120" height="20" as="geometry"/>
                </mxCell>
                <mxCell id="96" value="Output #1" style="text;html=1;strokeColor=none;fillColor=none;align=center;verticalAlign=bottom;whiteSpace=wrap;rounded=0;strokeWidth=2;fontSize=14;" vertex="1" parent="1">
                    <mxGeometry x="380" y="195" width="100" height="20" as="geometry"/>
                </mxCell>
                <mxCell id="97" value="&lt;span style=&quot;font-size: 14px;&quot;&gt;220&amp;nbsp;Î©&lt;/span&gt;&amp;nbsp;" style="text;html=1;strokeColor=none;fillColor=none;align=center;verticalAlign=middle;whiteSpace=wrap;rounded=0;strokeWidth=2;fontSize=14;" vertex="1" parent="1">
                    <mxGeometry x="260" y="225" width="120" height="20" as="geometry"/>
                </mxCell>
                <mxCell id="98" value="+" style="text;html=1;strokeColor=none;fillColor=none;align=center;verticalAlign=middle;whiteSpace=wrap;rounded=0;strokeWidth=2;fontSize=14;" vertex="1" parent="1">
                    <mxGeometry x="200" y="115" width="20" height="20" as="geometry"/>
                </mxCell>
                <mxCell id="99" value="-" style="text;html=1;strokeColor=none;fillColor=none;align=center;verticalAlign=middle;whiteSpace=wrap;rounded=0;strokeWidth=2;fontSize=14;" vertex="1" parent="1">
                    <mxGeometry x="200" y="205" width="20" height="20" as="geometry"/>
                </mxCell>
                <mxCell id="100" value="5V" style="text;html=1;strokeColor=none;fillColor=none;align=right;verticalAlign=middle;whiteSpace=wrap;rounded=0;strokeWidth=2;fontSize=14;" vertex="1" parent="1">
                    <mxGeometry x="165" y="120" width="20" height="100" as="geometry"/>
                </mxCell>
                <mxCell id="108" style="edgeStyle=none;rounded=0;html=1;exitX=1;exitY=0.12;exitDx=0;exitDy=0;strokeWidth=2;endArrow=none;endFill=0;" edge="1" parent="1" source="106">
                    <mxGeometry relative="1" as="geometry">
                        <mxPoint x="260" y="255" as="targetPoint"/>
                    </mxGeometry>
                </mxCell>
                <mxCell id="109" style="edgeStyle=none;rounded=0;html=1;exitX=0;exitY=0.5;exitDx=0;exitDy=0;entryX=0;entryY=0.57;entryDx=0;entryDy=0;entryPerimeter=0;strokeWidth=2;endArrow=none;endFill=0;" edge="1" parent="1" source="106" target="87">
                    <mxGeometry relative="1" as="geometry">
                        <Array as="points">
                            <mxPoint x="492.5" y="95"/>
                            <mxPoint x="492.5" y="255"/>
                        </Array>
                    </mxGeometry>
                </mxCell>
                <mxCell id="106" value="" style="shape=mxgraph.electrical.electro-mechanical.twoWaySwitch;elSwitchState=2;strokeWidth=2;rotation=-180;flipH=0;" vertex="1" parent="1">
                    <mxGeometry x="260" y="75" width="120" height="40" as="geometry"/>
                </mxCell>
                <mxCell id="85" value="&lt;span style=&quot;color: rgba(0, 0, 0, 0); font-family: monospace; font-size: 0px; text-align: start;&quot;&gt;%3CmxGraphModel%3E%3Croot%3E%3CmxCell%20id%3D%220%22%2F%3E%3CmxCell%20id%3D%221%22%20parent%3D%220%22%2F%3E%3CmxCell%20id%3D%222%22%20value%3D%22%22%20style%3D%22pointerEvents%3D1%3BverticalLabelPosition%3Dbottom%3Bshadow%3D0%3Bdashed%3D0%3Balign%3Dcenter%3Bhtml%3D1%3BverticalAlign%3Dtop%3Bshape%3Dmxgraph.electrical.resistors.resistor_2%3BstrokeWidth%3D2%3B%22%20vertex%3D%221%22%20parent%3D%221%22%3E%3CmxGeometry%20x%3D%22440%22%20y%3D%22535%22%20width%3D%22120%22%20height%3D%2220%22%20as%3D%22geometry%22%2F%3E%3C%2FmxCell%3E%3C%2Froot%3E%3C%2FmxGraphModel%3E&lt;/span&gt;&lt;span style=&quot;color: rgba(0, 0, 0, 0); font-family: monospace; font-size: 0px; text-align: start;&quot;&gt;%3CmxGraphModel%3E%3Croot%3E%3CmxCell%20id%3D%220%22%2F%3E%3CmxCell%20id%3D%221%22%20parent%3D%220%22%2F%3E%3CmxCell%20id%3D%222%22%20value%3D%22%22%20style%3D%22pointerEvents%3D1%3BverticalLabelPosition%3Dbottom%3Bshadow%3D0%3Bdashed%3D0%3Balign%3Dcenter%3Bhtml%3D1%3BverticalAlign%3Dtop%3Bshape%3Dmxgraph.electrical.resistors.resistor_2%3BstrokeWidth%3D2%3B%22%20vertex%3D%221%22%20parent%3D%221%22%3E%3CmxGeometry%20x%3D%22440%22%20y%3D%22535%22%20width%3D%22120%22%20height%3D%2220%22%20as%3D%22geometry%22%2F%3E%3C%2FmxCell%3E%3C%2Froot%3E%3C%2FmxGraphModel%3E&lt;/span&gt;" style="ellipse;whiteSpace=wrap;html=1;aspect=fixed;strokeWidth=2;fillColor=#000000;" vertex="1" parent="1">
                    <mxGeometry x="255" y="250" width="10" height="10" as="geometry"/>
                </mxCell>
            </root>
        </mxGraphModel>
    </diagram>
</mxfile>